<svg xmlns="http://www.w3.org/2000/svg" version="1.1" xmlns:xlink="http://www.w3.org/1999/xlink" width="50" height="50"><svg version="1.1" id="SvgjsSvg1005" xmlns="http://www.w3.org/2000/svg" xmlns:xlink="http://www.w3.org/1999/xlink" x="0px" y="0px" viewBox="0 0 50 50" style="enable-background:new 0 0 50 50;" xml:space="preserve">
<style type="text/css">
	.Drop_x0020_Shadow{fill:none;}
	.Thick_x0020_Blue_x0020_Neon{fill:none;stroke:#0073BC;stroke-width:10;stroke-linecap:round;stroke-linejoin:round;}
	.Illuminating_x0020_Aqua{fill:url(#SVGID_1_);stroke:#FFFFFF;stroke-width:0.25;stroke-miterlimit:1;}
	
		.Black_x0020_Highlight{fill:url(#SVGID_00000122706739935796210850000012882743591735104926_);stroke:#FFFFFF;stroke-width:0.3629;stroke-miterlimit:1;}
	.Bugaboo_GS{fill-rule:evenodd;clip-rule:evenodd;fill:#FFDD00;}
	.st0{fill:#2E2E2E;}
	.st1{fill:#FFFFFF;}
	.st2{fill:#FFFF00;}
</style>
<linearGradient id="SvgjsLinearGradient1004" gradientUnits="userSpaceOnUse" x1="0" y1="0" x2="6.123234e-17" y2="-1">
	<stop offset="0" style="stop-color:#1D59F4"></stop>
	<stop offset="0.618" style="stop-color:#2D65EE"></stop>
	<stop offset="0.6292" style="stop-color:#3864F3"></stop>
	<stop offset="0.9831" style="stop-color:#00DDFC"></stop>
</linearGradient>
<linearGradient id="SvgjsLinearGradient1003" gradientUnits="userSpaceOnUse" x1="0" y1="0" x2="6.123234e-17" y2="-1">
	<stop offset="0" style="stop-color:#060606"></stop>
	<stop offset="0.618" style="stop-color:#000000"></stop>
	<stop offset="0.6292" style="stop-color:#000000"></stop>
	<stop offset="0.9831" style="stop-color:#000000"></stop>
</linearGradient>
<path class="st0" d="M39,50H11C4.9,50,0,45.1,0,39V11C0,4.9,4.9,0,11,0h28c6.1,0,11,4.9,11,11v28C50,45.1,45.1,50,39,50z"></path>
<g>
	<path class="st1" d="M24.2,11.2c4,0,6.1,2.8,6.1,8.5v15.2h-6.1V21.6c0-3.3-0.7-4.9-2.1-4.9c-1,0-1.8,0.6-2.1,1.7
		c-0.4,1.1-0.6,2.8-0.6,5.1v11.5h-6.2V21.5c0-3.2-0.7-4.9-2-4.9c-1,0-1.8,0.6-2.2,1.8c-0.4,1.2-0.6,3.1-0.6,5.6v10.8H2.2V11.6h4.8
		l0.7,2.9h0.4c0.9-2.2,2.8-3.3,5.5-3.3c1.4,0,2.4,0.3,3.2,0.9c0.8,0.6,1.4,1.4,1.7,2.3H19c0.5-1,1.2-1.8,2.1-2.4
		C21.9,11.5,23,11.2,24.2,11.2z"></path>
	<path class="st2" d="M42.9,35.3c-3,0-5.3-1-6.8-2.9c-1.5-1.9-2.2-4.9-2.2-9c0-2.3,0.3-4.4,1-6.2c0.6-1.8,1.6-3.3,3-4.4
		c1.3-1.1,3.1-1.6,5.2-1.6c1.2,0,2.3,0.1,3.3,0.4c1,0.3,1.9,0.7,2.8,1.2l-1.7,4.9c-1.3-0.8-2.6-1.3-3.9-1.3c-1,0-1.9,0.6-2.5,1.8
		c-0.6,1.2-0.9,2.9-0.9,5.1c0,4.5,1.2,6.7,3.5,6.7c1.7,0,3.3-0.6,5-1.9v5.2c-0.8,0.6-1.7,1.1-2.6,1.4C44.9,35.2,43.9,35.3,42.9,35.3
		z"></path>
</g>
</svg><style>@media (prefers-color-scheme: light) { :root { filter: none; } }
@media (prefers-color-scheme: dark) { :root { filter: none; } }
</style></svg>