<?xml version="1.0" encoding="utf-8"?>
<!-- Generator: Adobe Illustrator 29.5.1, SVG Export Plug-In . SVG Version: 9.03 Build 0)  -->
<svg version="1.1" id="Layer_1" xmlns="http://www.w3.org/2000/svg" xmlns:xlink="http://www.w3.org/1999/xlink" x="0px" y="0px"
	 viewBox="0 0 250 100" style="enable-background:new 0 0 250 100;" xml:space="preserve">
<style type="text/css">
	.Drop_x0020_Shadow{fill:none;}
	.Thick_x0020_Blue_x0020_Neon{fill:none;stroke:#0073BC;stroke-width:10;stroke-linecap:round;stroke-linejoin:round;}
	.Illuminating_x0020_Aqua{fill:url(#SVGID_1_);stroke:#FFFFFF;stroke-width:0.25;stroke-miterlimit:1;}
	
		.Black_x0020_Highlight{fill:url(#SVGID_00000172406132951437959010000008843315000009479066_);stroke:#FFFFFF;stroke-width:0.3629;stroke-miterlimit:1;}
	.Bugaboo_GS{fill-rule:evenodd;clip-rule:evenodd;fill:#FFDD00;}
	.st0{fill:#FFFFFF;}
	.st1{fill:url(#SVGID_00000011735728971082263180000011424912527353811638_);}
	.st2{fill:#FFFF00;}
</style>
<linearGradient id="SVGID_1_" gradientUnits="userSpaceOnUse" x1="0" y1="0" x2="6.123234e-17" y2="-1">
	<stop  offset="0" style="stop-color:#1D59F4"/>
	<stop  offset="0.618" style="stop-color:#2D65EE"/>
	<stop  offset="0.6292" style="stop-color:#3864F3"/>
	<stop  offset="0.9831" style="stop-color:#00DDFC"/>
</linearGradient>
<linearGradient id="SVGID_00000155128277090994083570000006125549134447745191_" gradientUnits="userSpaceOnUse" x1="0" y1="0" x2="6.123234e-17" y2="-1">
	<stop  offset="0" style="stop-color:#060606"/>
	<stop  offset="0.618" style="stop-color:#000000"/>
	<stop  offset="0.6292" style="stop-color:#000000"/>
	<stop  offset="0.9831" style="stop-color:#000000"/>
</linearGradient>
<g>
	<path class="st0" d="M17.2,62.2L9.9,34.7H9.7c0.1,1.7,0.2,3.3,0.3,4.7C10,40.8,10,42,10,43v19.2H3.3V25h9.9l6.9,25.5h0.2L27.1,25
		h9.8v37.3h-6.8V43c0-1.1,0-2.4,0.1-3.7c0.1-1.3,0.1-2.8,0.2-4.5h-0.2l-7.4,27.4H17.2z"/>
	
		<radialGradient id="SVGID_00000181794440632568457230000002355153686156545455_" cx="52.9792" cy="47.9387" r="9.5167" gradientUnits="userSpaceOnUse">
		<stop  offset="0.3668" style="stop-color:#FFFF00"/>
		<stop  offset="1" style="stop-color:#000000;stop-opacity:0"/>
	</radialGradient>
	<circle style="fill:url(#SVGID_00000181794440632568457230000002355153686156545455_);" cx="53" cy="47.9" r="9.5"/>
	<path class="st0" d="M63.9,47.9c0,2.6-0.4,5.1-1.1,7.4c-0.7,2.3-1.9,4.1-3.5,5.5c-1.6,1.4-3.7,2.1-6.4,2.1c-2.5,0-4.5-0.7-6.1-2
		c-1.6-1.4-2.8-3.2-3.5-5.4c-0.8-2.3-1.1-4.7-1.1-7.4c0-2.9,0.4-5.4,1.1-7.6c0.7-2.2,1.9-3.9,3.5-5.2c1.6-1.3,3.7-1.9,6.2-1.9
		c3.3,0,5.9,1.3,7.9,3.8C62.9,39.5,63.9,43.1,63.9,47.9z M49,48c0,3,0.3,5.2,0.9,6.7c0.6,1.5,1.6,2.3,3,2.3c1.4,0,2.4-0.8,3-2.3
		c0.6-1.5,0.9-3.8,0.9-6.9c0-3-0.3-5.2-0.9-6.7c-0.6-1.5-1.6-2.2-3-2.2c-1.4,0-2.4,0.7-3,2.2C49.4,42.6,49,44.9,49,48z"/>
	<path class="st0" d="M73,62.2l-7.7-28.5h7l3.2,15.1c0.5,1.9,0.8,4,1,6.2h0.2c0-0.8,0.1-1.6,0.3-2.6c0.2-1,0.4-2,0.6-3.1l3.4-15.5h7
		l-7.8,28.5H73z"/>
	<path class="st0" d="M94.6,22.5c2.5,0,3.7,1.3,3.7,3.9c0,2.5-1.2,3.8-3.7,3.8c-2.5,0-3.7-1.3-3.7-3.8
		C90.9,23.8,92.2,22.5,94.6,22.5z M98,33.7v28.5h-6.8V33.7H98z"/>
	<path class="st0" d="M113.2,33.2c3.2,0,5.7,1.2,7.4,3.5c1.7,2.3,2.6,5.5,2.6,9.4v3.8h-13.6c0,2.5,0.5,4.3,1.4,5.5
		c0.9,1.2,2.2,1.8,4,1.8c1.2,0,2.3-0.2,3.4-0.5c1.1-0.3,2.3-0.9,3.5-1.6v5.6c-2.2,1.3-4.8,2-7.8,2c-3.9,0-6.8-1.3-8.5-3.9
		c-1.8-2.6-2.6-6.2-2.6-10.7c0-4.8,0.9-8.5,2.6-11.1C107.2,34.5,109.8,33.2,113.2,33.2z M113.4,38.5c-1.1,0-2,0.5-2.7,1.5
		s-1,2.7-1.1,5h7.3c0-2-0.3-3.6-0.9-4.7C115.3,39.1,114.5,38.5,113.4,38.5z"/>
	<path class="st2" d="M146.8,62.7c-3.6,0-6.3-1.2-8-3.6s-2.7-6.1-2.7-11.1c0-2.9,0.4-5.5,1.1-7.7c0.8-2.2,1.9-4,3.5-5.3
		c1.6-1.3,3.6-1.9,6.1-1.9c1.4,0,2.7,0.2,3.8,0.5s2.2,0.8,3.2,1.4l-1.9,5.4c-1.6-0.9-3.1-1.4-4.6-1.4c-1.4,0-2.5,0.8-3.3,2.3
		c-0.8,1.5-1.1,3.8-1.1,6.7c0,5.9,1.5,8.8,4.5,8.8c1.9,0,3.9-0.7,5.8-2.1v5.8c-0.9,0.7-1.9,1.3-3.1,1.6S147.9,62.7,146.8,62.7z"/>
	<path class="st2" d="M167.8,33.1c2.8,0,4.9,0.9,6.3,2.6c1.4,1.7,2.2,4.2,2.2,7.6v18.9h-5l-1.1-3.8h-0.2c-0.9,1.5-1.8,2.5-2.9,3.3
		c-1.1,0.7-2.4,1.1-4.1,1.1c-1.6,0-2.9-0.4-3.8-1.3c-1-0.9-1.7-2-2.1-3.3c-0.5-1.4-0.7-2.8-0.7-4.3c0-3,0.8-5.2,2.5-6.7
		c1.6-1.5,4-2.4,7-2.5l3.5-0.2v-1.1c0-3.1-1-4.6-3.1-4.6c-1.7,0-3.6,0.7-5.8,2l-1.9-5.1C161.3,33.9,164.4,33.1,167.8,33.1z
		 M169.6,49l-1.9,0.1c-2.9,0.1-4.3,1.6-4.3,4.4c0,2.5,0.9,3.8,2.6,3.8c1.1,0,2-0.5,2.6-1.6c0.7-1,1-2.4,1-4.2V49z"/>
	<path class="st2" d="M191.8,62.7c-3.6,0-6.3-1.2-8-3.6c-1.8-2.4-2.7-6.1-2.7-11.1c0-2.9,0.4-5.5,1.1-7.7c0.8-2.2,1.9-4,3.5-5.3
		c1.6-1.3,3.6-1.9,6.1-1.9c1.4,0,2.7,0.2,3.8,0.5c1.1,0.3,2.2,0.8,3.2,1.4l-1.9,5.4c-1.6-0.9-3.1-1.4-4.6-1.4
		c-1.4,0-2.5,0.8-3.3,2.3c-0.8,1.5-1.1,3.8-1.1,6.7c0,5.9,1.5,8.8,4.5,8.8c1.9,0,3.9-0.7,5.8-2.1v5.8c-0.9,0.7-1.9,1.3-3.1,1.6
		C194.1,62.6,193,62.7,191.8,62.7z"/>
	<path class="st2" d="M209.7,22.6v8.8c0,1,0,2-0.1,3c-0.1,1-0.2,2-0.4,2.9h0.4c1.1-2.8,3.2-4.2,6.2-4.2c2.4,0,4.3,0.9,5.6,2.6
		c1.3,1.8,1.9,4.3,1.9,7.6v18.8h-6.8V45.3c0-2.1-0.2-3.6-0.7-4.6c-0.4-1-1.1-1.5-2.1-1.5c-1.5,0-2.6,0.7-3.2,2.2
		c-0.6,1.5-0.9,3.8-0.9,7v13.7h-6.8V22.6H209.7z"/>
	<path class="st2" d="M238.4,33.2c3.2,0,5.7,1.2,7.4,3.5c1.7,2.3,2.6,5.5,2.6,9.4v3.8h-13.6c0,2.5,0.5,4.3,1.4,5.5
		c0.9,1.2,2.2,1.8,4,1.8c1.2,0,2.3-0.2,3.4-0.5c1.1-0.3,2.2-0.9,3.5-1.6v5.6c-2.2,1.3-4.8,2-7.8,2c-3.9,0-6.8-1.3-8.5-3.9
		c-1.8-2.6-2.6-6.2-2.6-10.7c0-4.8,0.9-8.5,2.6-11.1C232.4,34.5,235,33.2,238.4,33.2z M238.5,38.5c-1.1,0-2,0.5-2.7,1.5
		c-0.7,1-1,2.7-1.1,5h7.3c0-2-0.3-3.6-0.9-4.7S239.6,38.5,238.5,38.5z"/>
</g>
</svg>
